<?xml version="1.0" encoding="UTF-8" standalone="no"?>
<svg
   xmlns:dc="http://purl.org/dc/elements/1.1/"
   xmlns:cc="http://creativecommons.org/ns#"
   xmlns:rdf="http://www.w3.org/1999/02/22-rdf-syntax-ns#"
   xmlns:svg="http://www.w3.org/2000/svg"
   xmlns="http://www.w3.org/2000/svg"
   xmlns:sodipodi="http://sodipodi.sourceforge.net/DTD/sodipodi-0.dtd"
   xmlns:inkscape="http://www.inkscape.org/namespaces/inkscape"
   color-rendering="auto"
   color-interpolation="auto"
   text-rendering="auto"
   stroke-miterlimit="10"
   shape-rendering="auto"
   font-weight="normal"
   font-style="normal"
   font-size="12"
   image-rendering="auto"
   id="svg3837"
   version="1.1"
   inkscape:version="0.48.3.1 r9886"
   width="1024"
   height="1024"
   sodipodi:docname="party.svg"
   style="font-size:12px;font-style:normal;font-weight:normal;fill:#000000;fill-opacity:1;stroke:#000000;stroke-width:1;stroke-linecap:square;stroke-linejoin:miter;stroke-miterlimit:10;stroke-opacity:1;stroke-dasharray:none;stroke-dashoffset:0;font-family:Dialog"
   inkscape:export-filename="/storage/home/djwong/cdev/rscds/next/party.png"
   inkscape:export-xdpi="8.7890625"
   inkscape:export-ydpi="8.7890625">
  <metadata
     id="metadata3848">
    <rdf:RDF>
      <cc:Work
         rdf:about="">
        <dc:format>image/svg+xml</dc:format>
        <dc:type
           rdf:resource="http://purl.org/dc/dcmitype/StillImage" />
        <dc:title></dc:title>
      </cc:Work>
    </rdf:RDF>
  </metadata>
  <sodipodi:namedview
     pagecolor="#ffffff"
     bordercolor="#666666"
     borderopacity="1"
     objecttolerance="10"
     gridtolerance="10"
     guidetolerance="10"
     inkscape:pageopacity="0"
     inkscape:pageshadow="2"
     inkscape:window-width="1920"
     inkscape:window-height="1135"
     id="namedview3846"
     showgrid="false"
     inkscape:zoom="0.5427597"
     inkscape:cx="512"
     inkscape:cy="512"
     inkscape:window-x="1920"
     inkscape:window-y="34"
     inkscape:window-maximized="1"
     inkscape:current-layer="svg3837" />
  <!--Unicode Character 'PARTY POPPER' (U+1F389)-->
  <rect
     style="font-size:12px;font-style:normal;font-weight:normal;fill:#f2f0ec;fill-opacity:1;stroke:none;font-family:Dialog"
     id="rect2990"
     x="0"
     y="0"
     height="1024"
     width="1024" />
  <defs
     id="genericDefs" />
  <path
     d="m 813.29063,240.26712 q 0,11.46362 -13.16795,11.46362 -11.33047,0 -11.33047,-11.46362 0,-4.3375 3.67477,-8.8301 3.67476,-4.49261 7.96208,-4.49261 4.5933,0 8.72754,4.33772 4.13403,4.3375 4.13403,8.98499 z m -67.06445,77.76714 q -2.44985,2.16886 -4.89969,2.16886 -6.12461,0 -6.12461,-5.57703 0,-5.8868 6.12461,-5.8868 2.75623,0 4.89969,2.16884 l 0,7.12613 z m 72.57648,71.57057 q 0,6.81613 -6.43077,6.81613 -6.73697,0 -6.73697,-6.81613 0,-6.50657 6.73697,-6.50657 6.43077,0 6.43077,6.50657 z M 619.14083,251.73074 q 0,17.97019 -18.06764,17.97019 -18.37381,0 -18.37381,-17.97019 0,-7.4359 5.51204,-12.85783 5.51225,-5.42192 12.86177,-5.42192 18.06764,0 18.06764,18.27975 z m 65.83931,290.61976 -0.91874,7.4359 -7.34953,-1.23931 1.22514,-7.43591 7.04313,1.23932 z M 462.0446,318.34405 q 0,6.50634 -5.51205,6.50634 -6.73716,0 -6.73716,-6.50634 0,-5.88682 6.73716,-5.88682 5.51205,0 5.51205,5.88682 z m 290.91875,289.38043 q 0,19.2093 -19.29257,19.2093 -19.29255,0 -19.29255,-19.2093 0,-18.89973 19.29255,-18.89973 19.29257,0 19.29257,18.89973 z m 79.926,-81.17531 q 0,17.35042 -12.55538,41.82698 -14.08669,27.8845 -29.39809,27.8845 -2.44984,0 -3.98115,-1.85886 l 0,-7.43589 q 8.26827,-1.85909 19.59873,-23.85679 10.41192,-21.0686 10.41192,-30.98313 0,-40.58744 -35.21652,-52.05128 -8.88061,15.18179 -18.06741,30.67313 -8.88084,10.5343 -33.37925,10.5343 -2.14367,0 -11.94303,-4.18283 -9.79937,-4.18261 -11.02406,-5.7317 -3.36859,-3.71795 -3.36859,-14.56202 0,-34.39108 54.81525,-37.79904 l 2.75602,-1.23953 -2.75602,-4.02773 q -23.27371,-8.67521 -41.03495,-8.67521 -13.16795,0 -50.52791,21.99793 -28.78575,16.73087 -48.99684,31.91244 13.47413,28.19428 13.47413,29.74359 0,23.54701 -4.44041,31.75734 -4.44043,8.21055 -23.73276,19.3644 -13.7803,8.05566 -23.88606,15.18156 -1.5311,1.23932 -53.89651,34.39108 -82.9882,54.83969 -251.10871,161.11112 -9.79936,5.8868 -15.00523,5.8868 -1.83748,0 -6.43077,-2.7884 -0.3064,-2.47863 -0.3064,-6.19681 0,-13.94226 7.96209,-32.22221 7.04335,-14.8718 14.39288,-30.05337 52.05901,-112.46778 155.87108,-337.09401 15.31141,-2.16886 22.35475,-2.16886 16.84271,0 37.0538,7.74589 16.53652,-30.36337 20.2113,-41.20721 6.73694,-18.89974 6.73694,-46.1647 0,-57.93787 -43.79074,-72.49989 -11.94303,-4.02793 -18.67999,-4.02793 -3.67497,0 -17.45527,8.9852 8.88062,8.98498 8.88062,29.12381 0,18.89953 -27.25444,18.89953 -19.29254,0 -19.29254,-19.82906 0,-10.22431 10.41192,-21.37816 -1.22491,-0.61954 -3.98093,-0.61954 -13.16796,0 -19.90491,3.09817 -4.59351,2.16886 -11.0245,13.16783 -6.43077,10.99895 -7.65571,16.88576 0.61258,7.4359 -3.06218,21.68793 -0.61257,-3.71795 -3.98116,-13.94226 -3.06218,-8.67521 -3.06218,-14.25224 0,-20.75839 22.9673,-35.32041 2.75602,-2.16885 8.57445,-5.26704 6.1246,-2.16886 21.12982,-2.16886 1.5311,0 5.35895,1.85888 3.82786,1.85908 5.35917,1.85908 -0.30618,0 11.48355,-8.05568 11.78993,-8.05544 24.6515,-8.05544 l 6.43077,0 q 35.8291,0 55.42782,23.54702 18.37381,22.30769 18.37381,59.17718 0,35.01085 -19.29255,73.11987 -16.53633,32.532 -16.53633,29.4336 0,2.47863 17.45507,11.77362 3.67476,0 26.33568,-46.16448 25.11099,-50.50219 28.17318,-54.52992 0.61257,-0.61976 4.89968,-4.02793 -3.06219,23.547 -24.49841,67.23285 -3.67476,5.26726 -10.71789,16.4211 -0.3064,0.61955 -13.47436,27.26496 8.88085,5.57681 26.33592,16.73066 L 746.22618,249.87187 566.46901,441.65612 q 13.16796,17.04042 22.66115,19.51906 56.34634,-51.12173 95.23764,-73.42944 13.47411,-8.36543 26.94824,-17.04065 16.84249,-9.91453 28.47935,-13.0127 -51.1405,34.39107 -75.33272,52.67083 -41.03474,30.9829 -69.51409,60.72649 12.86157,14.87179 11.94304,14.87179 0.30617,0 20.82343,-15.49133 24.19224,-17.9702 44.40353,-28.19451 29.70427,-15.18157 52.05902,-14.8718 l 11.94303,0 q 7.34952,0 20.51747,5.57682 15.00523,5.88681 16.23015,11.46384 l 2.14366,0.92933 q 3.98094,6.19679 5.51204,13.01292 7.96209,1.85887 22.96732,8.05567 29.39808,16.73065 29.39808,60.10673 z M 387.63061,350.25649 q 0,10.84384 -11.63663,10.84384 -11.02429,0 -11.02429,-10.53406 0,-11.46363 11.02429,-11.46363 11.63663,0 11.63663,11.15385 z m 273.15751,293.40795 q 0,8.98521 -9.49319,8.98521 -8.57444,0 -8.57444,-8.98521 0,-9.29477 9.1868,-9.29477 8.88083,0 8.88083,9.29477 z M 314.13538,299.13453 q 0,19.20952 -18.67998,19.20952 -18.67999,0 -18.67999,-19.20952 0,-18.89952 18.67999,-18.89952 18.67998,0 18.67998,18.89952 z m -3.67454,94.8078 q 0,4.33749 -5.20608,4.33749 -1.53109,0 -3.98093,-2.16863 l 0,-4.33772 q 3.36858,-3.09818 3.98093,-3.09818 5.20608,0 5.20608,5.26704 z m 462.40741,74.35898 q 0,-0.30978 -1.5311,-3.40817 -3.36859,8.9852 -6.73717,17.97018 -4.28711,9.91454 -10.7179,15.80135 l 0,3.40794 3.36837,0 q 2.44984,-1.85886 6.73718,-6.81612 8.88062,-15.49157 8.88062,-26.95518 z m -15.31161,11.15384 -3.98095,0 q -2.75602,0 -12.55538,3.87283 -9.79937,3.87284 -11.33046,5.73192 -3.98116,4.95728 -3.98116,8.985 l 0,6.81612 q 6.431,2.16886 8.88084,2.16886 7.34953,0 14.08648,-10.53407 4.28734,-8.67523 8.88063,-17.04066 z M 527.27156,279.30546 q 0,-10.53407 -14.08648,-32.22221 -1.53109,-3.09818 -6.12461,-8.36522 -3.98093,-1.54931 -11.94302,-4.95727 7.34953,8.36522 20.2113,26.33542 8.26827,14.56201 9.1868,49.57264 2.75601,-22.30769 2.75601,-30.36336 z m -97.0749,-19.20928 q 0,-9.60476 -7.34952,-12.0834 -7.04314,21.06838 -7.04314,18.89953 0,1.23954 0.61236,1.85908 0.61235,0.61955 0.61235,0.92954 l 6.73718,0 q 6.43077,0 6.43077,-9.60475 z m 192.6187,281.94433 q 0,-8.05544 -4.59329,-18.89951 -7.04334,-16.73067 -7.65591,-18.27998 -9.49297,8.05567 -28.47935,23.85701 -4.28712,-3.71795 -4.28712,-5.57703 0,-4.95727 8.88063,-14.8718 12.55538,-13.94225 12.86178,-14.25202 -7.04336,-13.94248 -14.69905,-13.94248 -1.22515,0 -4.59352,2.47863 -3.36857,2.47863 -6.12459,2.47863 l -0.91875,-0.61955 0,-3.71795 q 4.5935,-6.81612 4.5935,-8.6752 0,-1.85909 -9.49318,-10.22432 -9.49318,-8.36543 -12.55538,-10.2243 l -47.46572,59.48718 q 5.51225,4.02773 16.23014,12.39317 2.14366,3.40796 7.65569,8.98499 6.73718,4.95726 27.56083,14.25202 22.04857,9.91453 28.17317,9.91453 l 7.04334,0 q 10.71789,0.30977 18.37382,-4.64749 3.06219,-0.92932 8.57444,-3.40795 0.91852,-4.02795 0.91852,-6.50658 z m -73.18884,-96.66666 -26.0295,-16.73066 q -17.14889,30.67312 -24.80481,30.67312 -0.30617,0 -1.83726,-0.61977 l 0,-7.43589 16.84271,-27.26496 q -1.22515,-3.40818 -6.73719,-7.90056 -5.51203,-4.4926 -9.187,-4.4926 -2.44984,0 -8.57423,8.05567 -6.12482,8.05544 -11.63686,8.05544 l -1.5311,-0.61955 0,-7.43589 q 0,-0.92955 3.82786,-5.88681 3.82785,-4.95726 3.82785,-8.36543 0,-2.16886 -1.22492,-2.16886 -19.9049,-4.02774 -31.84794,-4.02774 -3.67476,0 -9.34009,4.80239 -5.66513,4.80238 -5.66513,8.52033 l 0,3.40817 q 0,11.77339 13.47413,31.60245 5.20586,4.33772 14.39265,14.25224 1.22513,3.0982 4.59351,8.67523 2.14366,3.09817 16.23036,17.5053 14.08648,14.40692 15.92375,15.02669 l 49.30321,-57.62831 z m 55.42761,122.69252 q -24.8046,-0.30999 -67.98321,-20.75861 -28.47935,-13.32269 -67.98298,-60.10694 -12.2492,-14.25202 -24.49841,-28.50428 -13.16795,-16.42088 -17.76146,-32.84177 -20.21107,42.75631 -106.56787,230.51283 -17.76146,36.24994 -50.83431,109.98937 -3.67477,8.67499 -3.98094,15.80112 5.81843,-4.95727 17.45506,-13.94226 1.22493,-0.92954 103.81208,-64.44444 L 605.05413,568.06637 z"
     id="path3844"
     inkscape:connector-curvature="0"
     style="fill:#603813;fill-opacity:1;stroke:none" />
</svg>
