<?xml version="1.0" encoding="UTF-8" standalone="no"?>
<svg
   xmlns:dc="http://purl.org/dc/elements/1.1/"
   xmlns:cc="http://creativecommons.org/ns#"
   xmlns:rdf="http://www.w3.org/1999/02/22-rdf-syntax-ns#"
   xmlns:svg="http://www.w3.org/2000/svg"
   xmlns="http://www.w3.org/2000/svg"
   xmlns:sodipodi="http://sodipodi.sourceforge.net/DTD/sodipodi-0.dtd"
   xmlns:inkscape="http://www.inkscape.org/namespaces/inkscape"
   color-rendering="auto"
   color-interpolation="auto"
   text-rendering="auto"
   stroke-miterlimit="10"
   shape-rendering="auto"
   font-weight="normal"
   font-style="normal"
   font-size="12"
   image-rendering="auto"
   id="svg2"
   version="1.1"
   inkscape:version="0.48.3.1 r9886"
   width="1024"
   height="1024"
   sodipodi:docname="ball.svg"
   style="font-size:12px;font-style:normal;font-weight:normal;fill:#000000;fill-opacity:1;stroke:#000000;stroke-width:1;stroke-linecap:square;stroke-linejoin:miter;stroke-miterlimit:10;stroke-opacity:1;stroke-dasharray:none;stroke-dashoffset:0;font-family:Dialog"
   inkscape:export-filename="/storage/home/djwong/cdev/rscds/next/ball.png"
   inkscape:export-xdpi="8.7890625"
   inkscape:export-ydpi="8.7890625">
  <rect
     style="fill:#f2f0ec;fill-opacity:1;stroke:none"
     id="rect2990"
     x="0"
     y="1.1368684e-13"
     height="1024"
     width="1024" />
  <metadata
     id="metadata13">
    <rdf:RDF>
      <cc:Work
         rdf:about="">
        <dc:format>image/svg+xml</dc:format>
        <dc:type
           rdf:resource="http://purl.org/dc/dcmitype/StillImage" />
        <dc:title></dc:title>
      </cc:Work>
    </rdf:RDF>
  </metadata>
  <sodipodi:namedview
     pagecolor="#ffffff"
     bordercolor="#666666"
     borderopacity="1"
     objecttolerance="10"
     gridtolerance="10"
     guidetolerance="10"
     inkscape:pageopacity="0"
     inkscape:pageshadow="2"
     inkscape:window-width="1354"
     inkscape:window-height="881"
     id="namedview11"
     showgrid="false"
     inkscape:zoom="0.73539105"
     inkscape:cx="172.57692"
     inkscape:cy="389.68738"
     inkscape:window-x="2125"
     inkscape:window-y="120"
     inkscape:window-maximized="0"
     inkscape:current-layer="svg2" />
  <!--Unicode Character 'TOP HAT' (U+1F3A9)-->
  <defs
     id="genericDefs" />
  <g
     id="g3782">
    <path
       inkscape:connector-curvature="0"
       id="path3762"
       d="m 243.71651,558.09117 c -0.65302,-0.32546 -1.288,-0.68971 -1.95908,-0.97638 -0.47452,-0.20271 -0.98997,-0.29708 -1.46932,-0.4882 -1.00341,-0.40007 -1.91413,-1.12419 -2.93863,-1.46458 -0.15488,-0.0515 -0.34375,0.0728 -0.48976,0 -0.20652,-0.10293 -0.27075,-0.41542 -0.48978,-0.4882 -0.22402,-0.0744 -1.74115,0.10862 -1.95909,0 -0.2065,-0.10293 -0.28327,-0.38527 -0.48977,-0.4882 -0.14891,-0.0742 -1.6209,0 -1.95909,0 -1.46931,0 -2.93863,0 -4.40795,0 -0.97954,0 -1.95909,0 -2.93863,0 -0.16325,0 -0.32651,0 -0.48977,0 -0.16326,0 -0.37434,-0.11507 -0.48977,0 -0.11544,0.11507 0.11543,0.37313 0,0.4882 -0.11544,0.11507 -0.34376,-0.0728 -0.48977,0 -0.13004,0.0648 -1.4043,1.33497 -1.46932,1.46459 -0.073,0.14555 0.073,0.34264 0,0.48819 -0.10326,0.20585 -0.3617,0.29671 -0.48977,0.4882 -0.20249,0.30277 -0.32651,0.65092 -0.48978,0.97638 -0.16326,0.32547 -0.40123,0.62339 -0.48977,0.9764 -0.0791,0.31575 0.10326,0.66763 0,0.97639 -0.073,0.21833 -0.3617,0.29671 -0.48977,0.48819 -0.20249,0.30277 -0.37433,0.63119 -0.48977,0.9764 -0.0517,0.15438 0,0.32546 0,0.48819 0,0.32546 0.10325,0.66763 0,0.9764 -0.0731,0.21832 -0.41676,0.26986 -0.48978,0.48819 -0.0906,0.27093 0,3.32031 0,3.90556 0,0.58369 -0.10654,2.61055 0,2.92918 0.11545,0.3452 0.37433,0.63118 0.48978,0.97638 0.48599,1.45328 -1.15972,-1.00168 0.48977,1.46459 0.12807,0.19148 0.41676,0.26987 0.48977,0.4882 0.10326,0.30876 -0.10325,0.66762 0,0.97639 0.073,0.21833 0.38653,0.28235 0.48977,0.4882 0.0731,0.14555 -0.073,0.34264 0,0.48819 0.10326,0.20584 0.38652,0.28236 0.48978,0.4882 0.073,0.14554 -0.073,0.34264 0,0.48819 0.10325,0.20585 0.38651,0.28236 0.48977,0.4882 0.073,0.14554 -0.073,0.34264 0,0.48819 0.10325,0.20584 0.38652,0.28235 0.48977,0.48819 0.073,0.14556 -0.073,0.34266 0,0.4882 0.10325,0.20584 0.38652,0.28235 0.48978,0.4882 0.073,0.14555 -0.11545,0.37312 0,0.48819 1.01335,1.0101 -0.0396,-1.54356 0.97954,0.4882 0.073,0.14555 -0.073,0.34264 0,0.48819 0.10325,0.20585 0.38652,0.28236 0.48977,0.4882 0.073,0.14555 -0.11544,0.37313 0,0.4882 2.39987,1.19606 0.40965,-0.15971 0.97954,0.97639 0.10326,0.20584 0.41676,0.26986 0.48977,0.4882 0.10326,0.30875 -0.10325,0.66762 0,0.97638 0.073,0.21833 0.36171,0.29671 0.48978,0.48819 0.2025,0.30277 0.28728,0.67363 0.48977,0.9764 0.12807,0.19149 0.38652,0.28235 0.48977,0.48819 0.14602,0.29111 -0.23088,0.74625 0,0.9764 0.11544,0.11507 0.37433,-0.11507 0.48977,0 0.11545,0.11507 0,0.32546 0,0.48819 0,0.16274 0,0.32546 0,0.4882 0,0.21986 -0.0746,1.31601 0,1.46459 0.10325,0.20584 0.38652,0.28235 0.48978,0.48819 0.14602,0.2911 -0.23089,0.74625 0,0.97639 0.11544,0.11507 0.37433,-0.11506 0.48977,0 0.11544,0.11507 0,0.32547 0,0.48819 0,0.43632 -0.078,2.28541 0,2.44098 0.10325,0.20584 0.41676,0.26987 0.48977,0.4882 0.11106,0.33212 -0.12985,2.18211 0,2.44097 0.10325,0.20584 0.38652,0.28236 0.48977,0.4882 0.19591,0.39056 -0.19591,1.07403 0,1.46459 0.10325,0.20584 0.38652,0.28235 0.48978,0.48819 0.073,0.14556 -0.0517,0.33382 0,0.4882 0.11543,0.34521 0.37433,0.63118 0.48977,0.97639 0.0516,0.15438 -0.073,0.34264 0,0.4882 0.10325,0.20584 0.38651,0.28235 0.48976,0.48819 0.073,0.14555 -0.073,0.34265 0,0.4882 0.10326,0.20584 0.38653,0.28235 0.48978,0.4882 0.073,0.14554 -0.073,0.34264 0,0.48818 0.10325,0.20584 0.38652,0.28236 0.48977,0.4882 0.14602,0.29111 -0.23088,0.74626 0,0.97639 0.11544,0.11507 0.41676,-0.14555 0.48977,0 0.14602,0.29111 -0.10325,0.66764 0,0.97639 0.77721,2.3241 0.20235,-1.3477 0.97955,0.9764 0.10325,0.30875 -0.10325,0.66762 0,0.97639 0.14602,0.43665 0.7234,0.59341 0.97954,0.97639 0.92784,-0.0557 0.32651,1.13912 0.48977,1.46458 1.12075,2.23429 -0.203,-2.07161 0.97955,1.46459 0.0516,0.15438 -0.11544,0.37312 0,0.48819 0.11543,0.11507 0.41676,-0.14555 0.48977,0 0.14602,0.29111 -0.14602,0.68529 0,0.9764 0.073,0.14555 0.37433,-0.11507 0.48978,0 0.11543,0.11507 -0.0731,0.34264 0,0.48819 0.10324,0.20584 0.38651,0.28236 0.48976,0.4882 0.073,0.14555 -0.073,0.34264 0,0.4882 0.10326,0.20584 0.38652,0.28235 0.48977,0.48819 0.073,0.14555 -0.073,0.34264 0,0.4882 0.10326,0.20584 0.38653,0.28234 0.48977,0.48818 0.073,0.14556 -0.073,0.34266 0,0.4882 0.20651,0.41168 0.77304,0.56471 0.97955,0.97639 0.073,0.14556 -0.073,0.34265 0,0.4882 0.10326,0.20584 0.38652,0.28235 0.48977,0.4882 0.073,0.14555 -0.073,0.34264 0,0.48819 0.10326,0.20584 0.38652,0.28236 0.48977,0.4882 0.0731,0.14555 -0.11544,0.37312 0,0.48819 0.11545,0.11507 0.37434,-0.11507 0.48978,0 0.23088,0.23015 -0.14603,0.68529 0,0.9764 0.10325,0.20584 0.32651,0.32546 0.48977,0.48819 0.16325,0.16273 0.28327,0.38527 0.48977,0.4882 0.14603,0.0728 0.41676,-0.14555 0.48978,0 0.14601,0.2911 -0.14603,0.68528 0,0.97638 0.073,0.14556 0.37433,-0.11506 0.48977,0 0.11543,0.11507 -0.073,0.34265 0,0.4882 0.10325,0.20584 0.38651,0.28235 0.48977,0.48819 0.33778,0.6734 -0.59314,0.43669 0.48976,0.9764 0.14603,0.0728 0.41676,-0.14556 0.48978,0 0.14602,0.29111 -0.18111,0.70559 0,0.97639 0.2025,0.30276 0.6758,0.28635 0.97954,0.4882 0.42263,0.28084 1.08677,1.08325 1.46932,1.46458 0.16326,0.16273 0.32651,0.32547 0.48977,0.4882 0.16326,0.16273 0.38652,0.28235 0.48978,0.48819 0.073,0.14555 -0.0731,0.34265 0,0.48819 0.10324,0.20584 0.38651,0.28236 0.48977,0.4882 0.073,0.14555 -0.073,0.34264 0,0.4882 1.01915,2.03175 -0.0338,-0.5219 0.97954,0.48819 0.25813,0.25731 0.28727,0.67363 0.48978,0.97639 0.13413,0.20057 1.2681,1.33088 1.4693,1.46459 0.30375,0.20184 0.67581,0.28635 0.97955,0.4882 0.2076,0.13795 1.368,1.2626 1.46932,1.46458 0.073,0.14555 -0.11544,0.37313 0,0.48819 0.11544,0.11507 0.37433,-0.11506 0.48977,0 0.32708,0.32603 -0.32708,0.65037 0,0.9764 0.11544,0.11507 0.37433,-0.11507 0.48977,0 0.11545,0.11507 -0.073,0.34264 0,0.48819 0.20651,0.41169 0.77304,0.56471 0.97955,0.9764 0.073,0.14555 0,0.32546 0,0.48819 0.16325,0.16274 0.38651,0.28236 0.48977,0.4882 0.073,0.14555 -0.073,0.34264 0,0.48819 0.1134,0.22607 1.67103,1.66565 1.95908,1.95278 0.16326,0.16273 0.38653,0.28235 0.48978,0.4882 0.073,0.14555 -0.073,0.34265 0,0.48819 0.13083,0.26083 0.84871,0.71558 0.97954,0.97639 0.073,0.14556 -0.11544,0.37313 0,0.4882 0.11544,0.11507 0.37433,-0.11507 0.48977,0 0.23089,0.23014 -0.14602,0.68528 0,0.97639 0.20651,0.41169 0.77304,0.56471 0.97955,0.9764 0.073,0.14555 -0.073,0.34264 0,0.48819 0.20651,0.41168 0.77304,0.56471 0.97955,0.97639 0.72064,1.43667 -1.13461,-0.64275 0.48977,0.97639 0.16325,0.16273 0.32651,0.32547 0.48976,0.48819 0.16326,0.16274 0.38653,0.28236 0.48977,0.4882 0.14603,0.29111 -0.23087,0.74625 0,0.97639 0.11545,0.11507 0.37433,-0.11507 0.48978,0 0.11544,0.11507 -0.073,0.34264 0,0.4882 0.10325,0.20584 0.38652,0.28235 0.48977,0.48819 0.073,0.14556 -0.073,0.34265 0,0.4882 0.10326,0.20584 0.38652,0.28236 0.48977,0.4882 0.073,0.14555 -0.073,0.34264 0,0.48819 0.52275,1.04214 0.4568,-0.0658 0.97955,0.9764 0.073,0.14554 -0.073,0.34264 0,0.48818 0.2065,0.41168 0.7234,0.59343 0.97954,0.97639 0.20249,0.30277 0.28727,0.67363 0.48978,0.9764 0.12806,0.19148 0.36169,0.29671 0.48977,0.48819 0.20249,0.30277 0.28727,0.67363 0.48977,0.9764 0.67285,1.00603 0.96341,-0.0322 1.46931,0.97639 0.073,0.14555 -0.073,0.34264 0,0.48819 0.2065,0.41169 0.77304,0.56471 0.97954,0.9764 0.0731,0.14554 -0.11544,0.37312 0,0.48818 0.11545,0.11507 0.37434,-0.11506 0.48978,0 0.11544,0.11507 -0.0731,0.34266 0,0.4882 0.2065,0.41168 0.77304,0.56471 0.97954,0.97639 0.073,0.14556 -0.073,0.34264 0,0.4882 0.21705,0.43271 1.17209,1.02018 1.46932,1.46459 1.07905,0.24585 0.25889,1.0043 0.48977,1.46459 0.29387,0.58583 1.17545,0.87874 1.46931,1.46457 0.073,0.14556 -0.073,0.34266 0,0.4882 0.20651,0.41168 0.77304,0.56471 0.97955,0.97639 0.073,0.14556 -0.073,0.34265 0,0.4882 0.29386,0.58583 1.17545,0.87876 1.46932,1.46459 0.073,0.14555 -0.11545,0.37312 0,0.48819 0.11544,0.11507 0.37433,-0.11507 0.48977,0 0.11544,0.11507 -0.073,0.34265 0,0.4882 0.10325,0.20584 0.32651,0.32546 0.48977,0.4882 0.16326,0.16272 0.32651,0.32546 0.48977,0.48819 0.65303,0.65092 1.30606,1.30186 1.95909,1.95278 0.65303,0.65093 1.30606,1.30185 1.95909,1.95278 0.16326,0.16274 0.32651,0.32546 0.48977,0.4882 0.16326,0.16273 0.38652,0.28235 0.48977,0.4882 0.073,0.14555 -0.11544,0.37312 0,0.48819 0.11544,0.11507 0.37433,-0.11507 0.48977,0 0.23089,0.23013 -0.23088,0.74625 0,0.97639 0.11545,0.11506 0.32652,0 0.48978,0 0.16326,0.16273 0.3617,0.29671 0.48977,0.4882 0.20249,0.30277 0.28727,0.67362 0.48977,0.97638 0.29724,0.44442 1.25226,1.03189 1.46932,1.46459 0.073,0.14556 -0.11544,0.37313 0,0.4882 0.11543,0.11507 0.37433,-0.11507 0.48976,0 0.11545,0.11507 -0.073,0.34264 0,0.48819 0.10326,0.20585 0.38653,0.28236 0.48978,0.4882 0.073,0.14555 -0.073,0.34264 0,0.4882 0.10136,0.20199 1.26172,1.32663 1.46931,1.46459 0.30375,0.20184 0.72141,0.23089 0.97955,0.48819 0.11544,0.11506 -0.0906,0.35279 0,0.48819 1.89316,2.83061 0.23558,0.36152 1.46932,0.97639 0.48195,0.2402 1.47713,1.71258 1.95908,1.95279 0.14602,0.0728 0.34376,-0.0728 0.48977,0 0.20651,0.10292 0.29767,0.36053 0.48977,0.48819 0.30375,0.20184 0.67581,0.28635 0.97955,0.4882 0.38421,0.25531 0.56653,0.77055 0.97955,0.97639 0.14602,0.0728 0.37433,-0.11507 0.48977,0 0.11544,0.11507 -0.11544,0.37313 0,0.4882 0.11544,0.11506 0.37433,-0.11507 0.48977,0 0.11544,0.11506 -0.11544,0.37312 0,0.48819 0.11544,0.11506 0.32651,0 0.48977,0 0,0.16273 -0.073,0.34265 0,0.48819 0.10325,0.20584 0.32652,0.32547 0.48978,0.4882 0.38484,0.38361 2.29286,2.13001 2.44885,2.44098 0.073,0.14555 -0.073,0.34264 0,0.48819 0.29386,0.58583 1.17546,0.87875 1.46932,1.46459 0.073,0.14555 -0.073,0.34264 0,0.4882 0.065,0.12962 1.33928,1.39977 1.46932,1.46458 0.14602,0.0728 0.34374,-0.0728 0.48977,0 0.20651,0.10292 0.32651,0.32547 0.48977,0.48819 0.28806,0.28713 1.73228,1.83975 1.95908,1.95279 0.14603,0.0728 0.37433,-0.11507 0.48978,0 0.11544,0.11507 -0.11545,0.37312 0,0.48819 0.11544,0.11507 0.34374,-0.0728 0.48977,0 0.26079,0.12998 0.71875,0.84642 0.97954,0.9764 0.14603,0.0728 0.34375,-0.0728 0.48978,0 0.13004,0.0648 1.40429,1.33496 1.46931,1.46459 0.073,0.14554 -0.073,0.34264 0,0.48818 0.54146,1.07943 0.30397,0.15151 0.97955,0.4882 2.03831,1.01588 -0.52358,-0.0337 0.48977,0.97639 1.30606,0 -0.16326,-0.16272 0.48977,0.4882 0.11544,0.11507 0.37434,-0.11507 0.48977,0 0.11544,0.11507 -0.073,0.34264 0,0.48819 0.10326,0.20584 0.32652,0.32546 0.48977,0.4882 0.16326,0.16273 0.28327,0.38527 0.48977,0.4882 0.67557,0.3367 0.4381,-0.59124 0.97955,0.48819 0.073,0.14556 -0.073,0.34264 0,0.4882 0.10326,0.20584 0.38651,0.28235 0.48977,0.48819 0.073,0.14555 -0.11544,0.37313 0,0.4882 0.11544,0.11506 0.34375,-0.0728 0.48977,0 1.08292,0.53971 0.15199,0.30299 0.48978,0.97638 0.29386,0.58584 1.17544,0.87876 1.46932,1.46459 0.073,0.14556 -0.11545,0.37313 0,0.4882 0.11543,0.11507 0.37433,-0.11507 0.48977,0 0.11543,0.11507 -0.11544,0.37312 0,0.48819 0.11543,0.11507 0.37433,-0.11507 0.48976,0 0.11544,0.11507 -0.073,0.34265 0,0.4882 1.62438,1.61914 -0.23087,-0.46027 0.48977,0.97639 0.15599,0.31097 2.06402,2.05737 2.44887,2.44097 0.65303,0.65094 1.30606,1.30187 1.95909,1.95279 0.16325,0.16273 0.32651,0.32546 0.48977,0.4882 0.16325,0.16273 0.28327,0.38528 0.48977,0.48819 0.14602,0.0728 0.34375,-0.0728 0.48977,0 0.58773,0.29292 0.88159,1.17167 1.46932,1.46459 0.14602,0.0728 0.37433,-0.11507 0.48977,0 1.01335,1.0101 -1.54855,-0.0395 0.48977,0.97639 0.14602,0.0728 0.34375,-0.0728 0.48977,0 0.20651,0.10292 0.27074,0.41542 0.48978,0.4882 0.30975,0.10291 0.70786,-0.18054 0.97954,0 0.30374,0.20184 0.18603,0.77454 0.48977,0.97638 0.27168,0.18054 0.66979,-0.10291 0.97955,0 0.21903,0.0728 0.28326,0.38528 0.48976,0.4882 0.14603,0.0728 0.34376,-0.0728 0.48978,0 1.62436,1.61914 -0.46176,-0.23013 0.97954,0.48819 0.16326,0.16274 0.32652,0.32548 0.48977,0.4882 0.16326,0.16274 0.28327,0.38528 0.48978,0.4882 0.29204,0.14555 0.68749,-0.14556 0.97954,0 0.20651,0.10292 0.32651,0.32546 0.48977,0.48819 0.16326,0.16274 0.28327,0.38527 0.48978,0.4882 0.14602,0.0728 0.34375,-0.0728 0.48977,0 2.24149,1.11714 -2.07831,-0.20235 1.46931,0.97639 0.15489,0.0515 0.34376,-0.0728 0.48977,0 1.04667,0.52165 -0.0671,0.45474 0.97955,0.97639 0.29204,0.14555 0.74866,-0.23014 0.97954,0 0.11544,0.11506 -0.073,0.34265 0,0.4882 0.54145,1.07942 0.30398,0.1515 0.97955,0.48819 0.2065,0.10292 0.27073,0.41543 0.48977,0.48819 2.22958,0 0.028,-0.23013 1.46932,0.4882 0.14601,0.0728 0.37433,-0.11507 0.48977,0 0.11543,0.11507 -0.11544,0.37313 0,0.4882 0.11543,0.11507 0.34375,-0.0728 0.48976,0 1.62438,1.61914 -0.46175,-0.23014 0.97955,0.48819 0.20651,0.10293 0.28327,0.38528 0.48977,0.4882 0.14603,0.0728 0.32652,0 0.48977,0 0.16327,0.16273 0.28327,0.38528 0.48978,0.48819 0.30783,0.15343 1.65125,-0.15342 1.95909,0 0.2065,0.10293 0.28327,0.38527 0.48977,0.4882 0.25969,0.12943 2.11567,-0.1107 2.44885,0 0.21904,0.0728 0.28327,0.38527 0.48978,0.4882 0.30898,0.15399 2.13988,-0.154 2.44886,0 0.20651,0.10291 0.28327,0.38527 0.48977,0.48819 0.12663,0.0631 2.59148,0 2.93863,0 0.16326,0 0.37433,0.11507 0.48977,0 0.11545,-0.11507 -0.11544,-0.37312 0,-0.48819 0.11545,-0.11507 0.37433,0.11507 0.48978,0 0.11544,-0.11507 -0.073,-0.34265 0,-0.4882 1.62436,-1.61914 -0.23089,0.46027 0.48977,-0.97639 0.2065,-0.41168 0.77304,-0.56471 0.97954,-0.97639 0.0731,-0.14556 -0.073,-0.34265 0,-0.4882 0.10325,-0.20584 0.38652,-0.28236 0.48978,-0.4882 0.0746,-0.14857 0,-1.24472 0,-1.46458 0,-0.20537 0.0728,-2.78394 0,-2.92917 -0.10326,-0.20584 -0.38653,-0.28236 -0.48978,-0.4882 -0.073,-0.14555 0.0731,-0.34264 0,-0.4882 -0.2065,-0.41168 -0.77304,-0.56471 -0.97954,-0.97639 -0.14603,-0.2911 0.10326,-0.66762 0,-0.97638 -0.11544,-0.34521 -0.37433,-0.63119 -0.48977,-0.97639 -0.0516,-0.15439 0.073,-0.34265 0,-0.4882 -0.10325,-0.20584 -0.38652,-0.28235 -0.48978,-0.4882 -0.073,-0.14555 0.0731,-0.34264 0,-0.48819 -0.10324,-0.20584 -0.41676,-0.26987 -0.48977,-0.4882 -0.10325,-0.30877 0.10326,-0.66762 0,-0.97639 -0.073,-0.21832 -0.3617,-0.2967 -0.48977,-0.4882 -0.20249,-0.30276 -0.37433,-0.63118 -0.48978,-0.97639 -0.0516,-0.15438 0.0516,-0.33381 0,-0.4882 -0.14412,-0.43099 -1.21093,-2.54286 -1.4693,-2.92916 -0.12808,-0.19149 -0.36171,-0.29672 -0.48978,-0.4882 -0.4933,-0.73758 -0.48623,-1.2152 -0.97954,-1.95278 -0.12808,-0.19149 -0.38653,-0.28236 -0.48977,-0.4882 -0.0731,-0.14554 0.073,-0.34264 0,-0.4882 -1.12076,-2.23427 0.203,2.07163 -0.97955,-1.46458 -0.0516,-0.15438 0.073,-0.34264 0,-0.48819 -0.20651,-0.41168 -0.72341,-0.59342 -0.97955,-0.97639 -1.77556,-3.53971 0.51627,0.7719 -0.97954,-1.46459 -0.92784,0.0556 -0.32651,-1.13912 -0.48976,-1.46459 -0.10326,-0.20584 -0.36171,-0.29671 -0.48978,-0.4882 -0.2025,-0.30276 -0.28728,-0.67362 -0.48977,-0.97638 -0.12807,-0.19149 -0.38652,-0.28236 -0.48977,-0.4882 -0.073,-0.14555 0.073,-0.34264 0,-0.48819 -1.01917,-2.03176 0.0338,0.5219 -0.97955,-0.4882 -0.11544,-0.11507 0.073,-0.34264 0,-0.4882 -0.29386,-0.58583 -1.17545,-0.87875 -1.46932,-1.46458 -0.073,-0.14556 0.073,-0.34265 0,-0.4882 -0.18706,-0.37292 -1.35876,-1.134 -1.46931,-1.46459 -0.10325,-0.30876 0.14602,-0.68528 0,-0.97638 -0.20651,-0.41168 -0.70249,-0.60817 -0.97954,-0.97639 -0.6465,-0.85923 -0.82282,-2.06995 -1.46932,-2.92918 -0.45726,-0.60772 -1.89004,-1.88395 -2.44886,-2.44097 -0.16325,-0.16274 -0.3617,-0.29672 -0.48977,-0.4882 -0.2025,-0.30276 -0.28727,-0.67363 -0.48978,-0.97639 0.35028,-0.66673 -0.93451,-0.44333 -0.97954,-0.4882 -0.11543,-0.11507 0.073,-0.34264 0,-0.48819 -0.21705,-0.43271 -1.17209,-1.02018 -1.46931,-1.46459 -0.54372,-0.81296 -0.90189,-2.17504 -1.46932,-2.92917 -0.82281,-1.09357 -2.11581,-1.83562 -2.93863,-2.92918 -0.21903,-0.2911 -0.27074,-0.68528 -0.48978,-0.97639 -2.1184,-2.11158 -0.0767,0.12933 -1.46931,-1.95278 -0.28174,-0.42126 -1.08676,-1.08326 -1.46931,-1.46458 -0.16326,-0.16274 -0.38653,-0.28236 -0.48978,-0.4882 -0.073,-0.14555 0.0731,-0.34264 0,-0.4882 -0.2065,-0.41168 -0.77304,-0.56471 -0.97954,-0.97639 -0.073,-0.14555 0.073,-0.34264 0,-0.4882 -0.10325,-0.20584 -0.38652,-0.28235 -0.48977,-0.48819 -0.073,-0.14555 0.073,-0.34264 0,-0.4882 -0.10325,-0.20584 -0.32652,-0.32546 -0.48978,-0.48819 -0.38255,-0.38132 -1.18756,-1.04333 -1.46931,-1.46458 -0.2025,-0.30277 -0.28728,-0.67363 -0.48977,-0.9764 -0.12807,-0.19148 -0.32652,-0.32546 -0.48977,-0.48819 -0.16326,-0.16274 -0.27075,-0.41542 -0.48977,-0.4882 -0.30977,-0.10292 -0.68751,0.14556 -0.97955,0 -0.14602,-0.0728 0.073,-0.34264 0,-0.48819 -0.10326,-0.20585 -0.32651,-0.32547 -0.48977,-0.4882 -0.16326,-0.16273 -0.28327,-0.38527 -0.48978,-0.4882 -0.67556,-0.33669 -0.43808,0.59124 -0.97954,-0.48819 -0.073,-0.14555 0.073,-0.34265 0,-0.4882 -0.21705,-0.4327 -1.17209,-1.02017 -1.46932,-1.46458 -0.20249,-0.30276 -0.27074,-0.68529 -0.48976,-0.97639 -0.27706,-0.36822 -0.65304,-0.65093 -0.97955,-0.97639 -0.81629,-0.81366 -1.63258,-1.62732 -2.44886,-2.44098 -0.25785,-0.25701 -1.33852,-1.20385 -1.46932,-1.46458 -0.073,-0.14556 0.073,-0.34266 0,-0.4882 -0.10325,-0.20584 -0.32651,-0.32547 -0.48977,-0.4882 -0.16325,-0.16273 -0.32651,-0.32547 -0.48977,-0.48819 -0.65303,-0.65093 -1.30606,-1.30186 -1.95909,-1.95279 -0.32652,-0.32546 -0.65303,-0.65092 -0.97954,-0.97639 -0.16326,-0.16272 -0.3617,-0.2967 -0.48977,-0.4882 -0.2025,-0.30276 -0.28728,-0.67361 -0.48978,-0.97639 -0.12806,-0.19148 -0.41676,-0.26986 -0.48977,-0.48818 -0.10325,-0.30877 0.14603,-0.6853 0,-0.9764 -0.073,-0.14555 -0.37433,0.11507 -0.48977,0 -0.25814,-0.2573 -0.28727,-0.67362 -0.48977,-0.97639 -0.12807,-0.19148 -0.3617,-0.29671 -0.48978,-0.4882 -0.40498,-0.60553 -0.57455,-1.34725 -0.97953,-1.95278 -0.13841,-0.20693 -1.26668,-1.36359 -1.46932,-1.46459 -0.14603,-0.0728 -0.37433,0.11507 -0.48977,0 -0.11545,-0.11506 0.11544,-0.37313 0,-0.48819 -0.11545,-0.11507 -0.37433,0.11506 -0.48978,0 -0.11544,-0.11507 0.0731,-0.34265 0,-0.48819 -0.10325,-0.20584 -0.36169,-0.29672 -0.48977,-0.4882 -0.40499,-0.60553 -0.57455,-1.34725 -0.97954,-1.95278 -0.12807,-0.19149 -0.3617,-0.29672 -0.48978,-0.4882 -0.40499,-0.60553 -0.54147,-1.37058 -0.97954,-1.95278 -2.1184,-2.11159 -0.0767,0.12932 -1.46931,-1.95278 -0.32022,-0.47877 -0.95951,-0.80701 -1.46932,-0.97639 -0.15488,-0.0515 -0.34375,0.0728 -0.48977,0 -0.58773,-0.29292 -0.8816,-1.17167 -1.46932,-1.46459 -0.14602,-0.0728 -0.37433,0.11507 -0.48977,0 -0.11545,-0.11507 0.11544,-0.37313 0,-0.4882 -0.65303,-0.65092 -0.46996,1.03563 -0.97955,-0.48819 -0.10325,-0.30876 0.18112,-0.70559 0,-0.9764 -0.20249,-0.30276 -0.72141,-0.23089 -0.97953,-0.48819 -0.25814,-0.2573 -0.23165,-0.71909 -0.48978,-0.97638 -0.25813,-0.25731 -0.66651,-0.30099 -0.97954,-0.4882 -0.50475,-0.30188 -1.05309,-0.56151 -1.46932,-0.97639 -2.50292,-2.49486 2.0536,0.68089 -1.46932,-1.95279 -0.29204,-0.21833 -0.6758,-0.28634 -0.97954,-0.48819 -0.38421,-0.25532 -0.65303,-0.65093 -0.97954,-0.9764 -0.48977,-0.48819 -0.97954,-0.97638 -1.46932,-1.46458 -0.16326,-0.16273 -0.29767,-0.36054 -0.48977,-0.48819 -0.30374,-0.20185 -0.72141,-0.23089 -0.97955,-0.4882 -0.25813,-0.2573 -0.27073,-0.68529 -0.48977,-0.97639 -0.27705,-0.36822 -0.65303,-0.65093 -0.97954,-0.97639 -0.48978,-0.4882 -0.97955,-0.9764 -1.46932,-1.46459 -0.16325,-0.16273 -0.32651,-0.32546 -0.48977,-0.4882 -0.16326,-0.16272 -0.38652,-0.28235 -0.48977,-0.48819 -0.073,-0.14555 0.073,-0.34265 0,-0.48819 -0.10326,-0.20584 -0.32652,-0.32547 -0.48977,-0.4882 -0.48977,-0.48819 -0.97955,-0.97639 -1.46932,-1.46459 -0.16326,-0.16273 -0.3617,-0.29671 -0.48977,-0.48819 -0.20249,-0.30277 -0.28728,-0.67363 -0.48977,-0.97639 -0.25614,-0.38298 -0.77304,-0.56471 -0.97955,-0.9764 -0.073,-0.14555 0.073,-0.34264 0,-0.48819 -0.10325,-0.20584 -0.3617,-0.29671 -0.48977,-0.4882 -0.20249,-0.30277 -0.28727,-0.67362 -0.48978,-0.97638 -0.12806,-0.19149 -0.36169,-0.29672 -0.48977,-0.4882 -0.60279,-0.90129 -0.86652,-2.0279 -1.46931,-2.92918 -0.12807,-0.19148 -0.41676,-0.26986 -0.48977,-0.48819 -0.10326,-0.30876 0.10325,-0.66763 0,-0.97639 -0.14602,-0.43666 -0.77304,-0.56471 -0.97954,-0.9764 -0.073,-0.14554 0.073,-0.34264 0,-0.48818 -0.10326,-0.20584 -0.3617,-0.29672 -0.48978,-0.4882 -0.20249,-0.30276 -0.28728,-0.67363 -0.48977,-0.97639 -0.12806,-0.19149 -0.41676,-0.26988 -0.48977,-0.4882 -0.10325,-0.30876 0.10326,-0.66762 0,-0.97639 -0.0731,-0.21833 -0.3617,-0.29671 -0.48978,-0.4882 -1.07904,-0.24585 -0.25888,-1.0043 -0.48977,-1.46459 -0.10325,-0.20584 -0.38651,-0.28235 -0.48977,-0.48819 -0.073,-0.14555 0.11544,-0.37313 0,-0.4882 -0.11543,-0.11506 -0.37433,0.11507 -0.48977,0 -0.11544,-0.11506 0.073,-0.34264 0,-0.48818 -0.20651,-0.41169 -0.83353,-0.53974 -0.97954,-0.9764 -0.10326,-0.30876 0.10325,-0.66763 0,-0.97639 -0.073,-0.21833 -0.36171,-0.29671 -0.48977,-0.4882 -0.76255,-1.14013 -1.19656,-2.76543 -1.95909,-3.90556 -0.12808,-0.19149 -0.3617,-0.29671 -0.48978,-0.48819 -0.92783,0.0556 -0.32651,-1.13913 -0.48977,-1.46459 -0.10325,-0.20584 -0.38651,-0.28236 -0.48977,-0.4882 -0.073,-0.14555 0.11544,-0.37312 0,-0.48819 -0.11544,-0.11507 -0.37433,0.11507 -0.48977,0 -0.11545,-0.11507 0.0516,-0.33382 0,-0.4882 -0.11545,-0.3452 -0.32652,-0.65093 -0.48978,-0.97639 -0.16325,-0.32546 -0.27073,-0.68529 -0.48977,-0.97639 -0.41558,-0.55233 -1.08511,-0.89012 -1.46931,-1.46458 -0.40499,-0.60553 -0.57455,-1.34726 -0.97954,-1.95279 -0.12808,-0.19148 -0.41676,-0.26986 -0.48978,-0.48819 -0.10325,-0.30877 0.10325,-0.66763 0,-0.9764 -0.78763,-2.35528 -0.19191,1.37891 -0.97954,-0.97639 -0.10325,-0.30876 0.14602,-0.68528 0,-0.97639 -0.073,-0.14555 -0.37433,0.11507 -0.48977,0 -0.25814,-0.2573 -0.28727,-0.67362 -0.48978,-0.97638 -0.12806,-0.1915 -0.3617,-0.29672 -0.48977,-0.4882 -0.76254,-1.14013 -1.19654,-2.76544 -1.95908,-3.90557 -0.12807,-0.19148 -0.38653,-0.28236 -0.48977,-0.4882 -0.073,-0.14554 0.073,-0.34264 0,-0.48819 -0.10326,-0.20584 -0.38653,-0.28235 -0.48978,-0.48819 -0.073,-0.14555 0.11545,-0.37314 0,-0.4882 -0.11544,-0.11507 -0.37433,0.11506 -0.48977,0 -0.11544,-0.11507 0.073,-0.34265 0,-0.48819 -0.10326,-0.20584 -0.32651,-0.32547 -0.48977,-0.4882 0,-0.32547 0.10325,-0.66763 0,-0.97639 -0.073,-0.21833 -0.38653,-0.28236 -0.48977,-0.4882 -0.073,-0.14555 0.11544,-0.37312 0,-0.48819 -0.11545,-0.11507 -0.37433,0.11507 -0.48978,0 -0.11544,-0.11507 0.073,-0.34265 0,-0.4882 -0.10324,-0.20584 -0.38651,-0.28235 -0.48977,-0.4882 -0.073,-0.14555 0.11544,-0.37312 0,-0.48819 -0.11544,-0.11507 -0.37433,0.11507 -0.48977,0 -0.11544,-0.11507 0.073,-0.34264 0,-0.4882 -0.10325,-0.20584 -0.38652,-0.28235 -0.48978,-0.48819 -0.60313,-1.2024 1.42169,0.44071 -0.48977,-1.46458 -0.11543,-0.11507 -0.37433,0.11507 -0.48977,0 -0.11543,-0.11507 0.073,-0.34265 0,-0.4882 -0.10325,-0.20584 -0.38652,-0.28235 -0.48976,-0.4882 -0.0731,-0.14555 0.11543,-0.37312 0,-0.48819 -0.11545,-0.11507 -0.37434,0.11507 -0.48978,0 -0.23088,-0.23014 0.23088,-0.74625 0,-0.97639 -0.11544,-0.11507 -0.37433,0.11507 -0.48977,0 -0.11544,-0.11507 0.11544,-0.37313 0,-0.4882 -0.11544,-0.11507 -0.37433,0.11507 -0.48977,0 -0.11544,-0.11507 0.073,-0.34264 0,-0.4882 -0.20651,-0.41168 -0.77304,-0.56471 -0.97955,-0.97639 -0.073,-0.14554 0.073,-0.34264 0,-0.4882 -0.2065,-0.41168 -0.77304,-0.5647 -0.97954,-0.97638 -0.073,-0.14555 0.073,-0.34265 0,-0.48819 -0.20651,-0.41169 -0.77304,-0.56471 -0.97955,-0.9764 -0.073,-0.14555 0,-0.32546 0,-0.48819 -0.16325,-0.16274 -0.38651,-0.28236 -0.48977,-0.4882 -0.073,-0.14555 0.11544,-0.37313 0,-0.4882 -0.11544,-0.11507 -0.42914,0.15109 -0.48977,0 -0.30917,-0.77041 -0.32652,-1.62731 -0.48978,-2.44098 z"
       style="fill:#ffffff;fill-opacity:1;stroke:none" />
    <rect
       y="284.13315"
       x="329.46896"
       height="431.60471"
       width="385.526"
       id="rect3760"
       style="fill:#ffffff;fill-opacity:1;stroke:none" />
    <g
       style="fill:#603813;fill-opacity:1"
       transform="matrix(2.2859814,0,0,2.2843463,178.63966,42.899621)"
       id="g5">
      <g
         style="fill:#603813;fill-opacity:1"
         id="g7">
        <path
           style="fill:#603813;fill-opacity:1;stroke:none"
           inkscape:connector-curvature="0"
           id="path9"
           d="m 280.125,259.875 q 0,13.0781 -4.2188,23.0625 -3.2343,7.7344 -12.2343,19.9687 -10.6875,14.625 -30.2344,24.0469 -9.9844,4.7813 -31.2187,8.8594 -19.9688,3.9375 -32.3438,3.9375 -17.8594,0 -25.5938,-1.5469 -3.2343,-0.9843 -9.7031,-3.0937 -20.3906,-6.4688 -31.7812,-12.5156 Q 83.25,312.0469 64.4062,297.2812 42.3281,279.9844 32.3438,264.9375 q -3.9376,-4.5 -10.6876,-14.3437 -2.6718,-4.7813 -6.1874,-14.0626 -3.9376,-10.5468 -3.9376,-14.3437 0,-8.8594 3.9376,-16.0313 4.5,-8.2968 12.375,-10.2656 4.3593,-0.2812 13.0781,-1.125 6.8906,-1.9687 20.8125,-5.4844 L 49.9219,104.3438 q -0.2813,-4.2188 1.6172,-10.8985 1.8984,-6.6797 4.5703,-9.2109 0.9844,-0.9844 6.0468,-2.8125 12.375,-4.5 35.4376,-7.5938 20.6718,-2.8125 36.4218,-2.8125 48.0938,0 81.4219,14.9063 4.9219,2.25 14.7656,10.2656 10.9688,9 10.6875,12.5156 l -5.625,74.9531 q 0,0.1407 0.2813,0.8438 3.2343,1.5469 9.2812,4.9219 23.3438,15.6093 32.0625,46.9687 3.2344,11.5313 3.2344,23.4844 z M 233.5781,111.7969 q 0,-1.6875 -0.7031,-2.3907 -0.8438,-0.1406 -1.4062,0.4219 -8.8594,9.1407 -25.3126,12.5157 -19.8281,4.0781 -33.1874,4.0781 l -36.8438,0 q 0.8438,0 -6.1875,-1.125 -24.8906,-3.9375 -43.7344,-9.8438 -4.0781,-1.125 -11.6719,-3.9375 -1.2656,-0.5625 -4.3593,-3.0937 l -2.8125,1.4062 0,2.8125 q 0,3.0938 6.75,6.75 4.9218,2.3906 9.7031,4.6406 3.5156,46.4063 6.3281,92.3907 0.4219,10.2656 0.8438,20.3906 0.8437,12.7969 3.0937,19.9687 9.9844,5.0626 20.8125,9.9844 l 0,-135.7031 q 23.9063,2.6719 24.1875,2.6719 l 39.6563,0 q -0.7032,0 15.75,-1.9688 12.6562,-1.5468 15.1875,-2.1094 6.8906,-1.5468 14.2031,-5.7656 1.9688,-0.8437 5.4844,-2.9531 0.9844,-0.8437 2.6015,-4.2891 1.6172,-3.4453 1.6172,-4.8515 z M 119.6719,285.8906 q -2.1094,-2.5312 -8.2969,-8.7187 l 0.7031,-0.7031 q 2.5313,-0.5626 7.5938,-1.5469 -6.8907,-3.0938 -20.25,-9.8438 -5.0625,-3.375 -15.3281,-9.5625 -1.5469,0.9844 -1.5469,2.1094 0,-0.7031 5.7656,9.2812 -3.375,-0.4218 -10.125,-1.2656 0.8437,1.8282 3.2344,5.0625 10.6875,10.4063 19.9687,14.7657 2.9532,1.4062 9.9844,1.4062 2.3906,0 8.2969,-0.9844 z m -48.5157,5.0625 Q 36,253.4062 21.5156,231.0469 l 0,1.5469 q 0,2.1093 11.25,19.6874 3.2344,5.7657 10.6875,16.7344 16.875,20.25 26.7188,24.0469 l 0.9843,-2.1094 z" />
      </g>
    </g>
  </g>
</svg>
