<?xml version="1.0" encoding="UTF-8" standalone="no"?>
<svg
   xmlns:dc="http://purl.org/dc/elements/1.1/"
   xmlns:cc="http://creativecommons.org/ns#"
   xmlns:rdf="http://www.w3.org/1999/02/22-rdf-syntax-ns#"
   xmlns:svg="http://www.w3.org/2000/svg"
   xmlns="http://www.w3.org/2000/svg"
   xmlns:sodipodi="http://sodipodi.sourceforge.net/DTD/sodipodi-0.dtd"
   xmlns:inkscape="http://www.inkscape.org/namespaces/inkscape"
   color-rendering="auto"
   color-interpolation="auto"
   text-rendering="auto"
   stroke-miterlimit="10"
   shape-rendering="auto"
   font-weight="normal"
   font-style="normal"
   font-size="12"
   image-rendering="auto"
   id="svg3865"
   version="1.1"
   inkscape:version="0.48.3.1 r9886"
   width="1024"
   height="1024"
   sodipodi:docname="class.svg"
   style="font-size:12px;font-style:normal;font-weight:normal;fill:#000000;fill-opacity:1;stroke:#000000;stroke-width:1;stroke-linecap:square;stroke-linejoin:miter;stroke-miterlimit:10;stroke-opacity:1;stroke-dasharray:none;stroke-dashoffset:0;font-family:Dialog"
   inkscape:export-filename="/storage/home/djwong/cdev/rscds/next/class.png"
   inkscape:export-xdpi="8.7890625"
   inkscape:export-ydpi="8.7890625">
  <metadata
     id="metadata3876">
    <rdf:RDF>
      <cc:Work
         rdf:about="">
        <dc:format>image/svg+xml</dc:format>
        <dc:type
           rdf:resource="http://purl.org/dc/dcmitype/StillImage" />
        <dc:title></dc:title>
      </cc:Work>
    </rdf:RDF>
  </metadata>
  <sodipodi:namedview
     pagecolor="#ffffff"
     bordercolor="#666666"
     borderopacity="1"
     objecttolerance="10"
     gridtolerance="10"
     guidetolerance="10"
     inkscape:pageopacity="0"
     inkscape:pageshadow="2"
     inkscape:window-width="1920"
     inkscape:window-height="1135"
     id="namedview3874"
     showgrid="false"
     inkscape:zoom="0.63429569"
     inkscape:cx="391.47763"
     inkscape:cy="526.18109"
     inkscape:window-x="0"
     inkscape:window-y="34"
     inkscape:window-maximized="1"
     inkscape:current-layer="svg3865" />
  <!--Unicode Character 'ROSE' (U+1F339)-->
  <rect
     style="font-size:12px;font-style:normal;font-weight:normal;fill:#f2f0ec;fill-opacity:1;stroke:none;font-family:Dialog"
     id="rect2990"
     x="0"
     y="0"
     height="1024"
     width="1024" />
  <defs
     id="genericDefs" />
  <path
     d="m 553.22004,346.70893 q 0,16.14684 -7.91525,16.14684 -3.16593,0 -9.65627,-1.89973 -6.49057,-1.89951 -9.6565,-1.89951 -0.94987,0 -2.84937,0.63309 -1.89974,0.63333 -2.84938,0.63333 -0.94986,0 -24.0621,-15.51352 2.8496,-2.53283 9.18167,-6.3323 18.67945,-6.64862 38.62553,-6.64862 4.74911,0 7.91503,1.58296 0,2.21628 0.63332,6.64884 0.63332,4.43234 0.63332,6.64862 z m 229.85409,93.71467 q 0,-0.31655 -11.39773,18.67966 -11.39773,18.99622 -13.29723,27.22779 -5.38244,24.06188 -5.38244,36.40948 0,7.28193 1.89974,22.00386 1.8995,14.72215 1.8995,22.32064 0,24.06187 -7.59848,36.09292 -1.89951,3.16592 -24.37842,27.54434 -12.3476,13.29747 -14.88042,22.16237 0.31677,7.59848 -1.89951,22.47868 -1.26641,3.16615 -9.18168,10.44809 -7.91502,7.28171 -10.7644,7.28171 -27.86112,0 -43.69118,-17.41303 -4.74912,-5.38243 -6.9654,-17.41325 -1.89973,-9.498 -3.48269,-18.99622 l 11.39772,-56.98865 q -8.54812,0 -23.42855,11.39774 -10.44785,8.54835 -21.2125,17.41325 11.08119,-13.93056 22.16214,-28.17766 12.98092,-16.78016 17.09672,-31.02726 5.38219,-18.99622 5.38219,-36.40948 0,-11.71427 -10.60613,-32.76849 -10.60613,-21.054 -10.60613,-21.054 0,-1.26642 3.32419,-6.96539 3.32443,-5.69876 3.64097,-6.96517 5.38221,-14.24711 5.38221,-25.9616 0,-20.57919 -24.37842,-31.34359 -12.03105,-3.16615 -33.24333,-12.98092 -4.7491,-3.48269 -10.13131,-20.89572 -6.33207,-19.62954 -9.49822,-23.74532 -7.91503,-11.08119 -20.26263,-11.08119 -7.28193,0 -25.96138,5.69898 -4.74911,3.16592 -14.88042,7.91504 -17.72981,5.06565 -31.02704,5.06565 -2.84961,0 -8.70663,-1.26641 -5.85725,-1.26642 -8.70662,-1.26642 -5.38221,0 -27.86112,13.93056 -19.62953,12.03083 -27.54457,18.67967 -4.74911,4.11579 -13.29724,13.29724 -17.7298,26.27815 -17.7298,36.09291 0,17.09649 22.16214,52.23954 16.46339,25.01174 33.24332,50.02348 8.54836,13.93033 25.01174,42.10822 13.93056,25.96138 13.93056,34.19318 0,3.16594 -1.58296,9.18145 -1.58297,6.01553 -1.58297,9.18145 0,10.76464 16.46316,22.47891 12.66414,9.18145 26.59493,13.61402 l -32.29367,10.44786 Q 422.14605,637.66768 403.46638,597.14242 400.617,591.1269 382.8872,536.03776 359.77519,464.16892 344.26146,422.06047 329.6978,382.80186 329.6978,385.65122 q 0,-2.53282 6.80689,-11.23945 6.80712,-8.70662 9.6565,-10.9229 10.13131,-7.59849 43.37463,-22.47891 34.82651,-15.51352 44.64128,-15.51352 2.21606,0 11.71427,6.33207 1.26642,-3.48269 4.74889,-9.81455 12.98091,-18.99643 60.78788,-39.25907 33.5601,-14.2471 44.32473,-14.2471 2.21606,0 27.86112,4.43256 17.72979,2.53283 52.55607,9.498 3.79926,0.94986 24.06188,11.08118 -2.84938,11.08118 -2.84938,23.74533 0,21.52904 6.64862,52.23953 1.58297,6.64862 15.19698,51.2899 10.76463,34.50972 10.76463,50.65656 0,22.16215 -6.64885,41.15836 -9.81476,11.71427 -24.06186,32.29368 -11.08119,21.21227 -10.76442,32.29345 l 0,1.58296 q 3.79924,-7.28194 12.03083,-21.84559 12.66414,-17.09648 25.01174,-33.87664 12.98069,-19.31276 12.98069,-39.89194 0,-6.33207 -2.37456,-18.83794 -2.37455,-12.50587 -2.37455,-18.83794 0,-5.3822 1.58318,-14.56365 1.89952,-11.39796 2.21629,-14.56388 l 7.59848,0 q 2.21606,0 21.21227,2.21628 l 45.27437,5.69876 q 11.39773,13.614 11.39773,16.14684 z m -277.0282,-17.41326 q 0,-0.6331 -4.11578,11.71428 -4.43234,-4.43234 -12.98069,-14.2471 5.06566,-2.21606 15.83006,-5.38221 0,1.26641 0.63332,3.95751 0.63309,2.69111 0.63309,3.95752 z m -76.3014,-106.69535 q -19.31276,7.91503 -38.62552,15.83029 -22.16237,9.18145 -36.09292,21.8456 0.63332,-1.58297 5.69898,-33.24356 3.48247,-21.21227 12.98069,-30.07716 6.0153,4.11579 18.99621,11.08118 5.69875,2.53283 37.04256,14.56365 z m 58.88816,95.61417 q -1.58297,0 -5.06567,-0.31655 -3.48246,-0.31654 -5.38219,-0.31654 0,0 -7.59849,3.79924 -1.58296,-1.58297 -7.91503,-11.08119 1.89973,0 5.22392,-1.42468 3.32442,-1.4247 5.22394,-1.4247 1.26641,0 15.51352,10.76442 z m 43.37486,24.06209 q -0.31677,-0.63332 -14.88043,-19.62953 -12.66414,-16.46339 -13.93055,-16.46339 -1.58297,0 -5.22394,1.89952 -3.64096,1.89973 -5.54048,1.89973 -1.58318,0 -10.13131,-6.1738 -8.54836,-6.1738 -10.13131,-6.1738 0.94964,0 -20.26264,22.16236 l 0.6331,5.69876 q -0.6331,0 -10.13132,-6.64862 -4.43256,4.7491 -4.43256,11.71428 0,12.03104 6.96539,32.92677 -6.33207,-5.69876 -19.31276,-16.46339 0.94987,-10.13131 5.06566,-30.39395 4.74888,-16.77993 18.83794,-30.23566 14.08883,-13.45552 30.55222,-13.45552 12.34759,0 24.37842,5.38221 10.76463,4.74911 27.54457,63.95403 z m -9.81477,6.96518 q -5.3822,10.13131 -16.77994,16.46338 -10.76463,5.06565 -21.52904,9.81477 8.8649,-5.06566 31.66036,-37.0428 1.89951,3.4827 6.64862,10.76465 z m -50.65657,-88.01569 q -18.67967,5.69875 -25.32829,10.76441 -8.8649,6.33207 -18.67967,32.61022 -6.33207,18.36289 -12.66414,37.04256 -9.18145,-22.47891 -9.18145,-29.12752 0,-16.77993 5.06565,-29.44408 0.63333,-1.89974 11.08119,-10.44808 17.41325,-14.56366 40.20871,-14.56366 3.16593,0 9.498,3.16615 z m 15.83028,86.74927 q -7.28193,3.48269 -21.84581,9.18144 -2.21628,-3.48269 -13.93056,-18.04635 l 11.71428,-11.71427 q 12.98091,5.06566 24.06209,20.57918 z m 139.30558,-8.23159 q 0,5.38221 -14.24733,25.01152 -9.49799,12.98091 -18.99621,25.64506 -4.43234,11.3975 -14.56366,33.55987 -6.01552,11.08118 -19.62953,26.59469 -18.04635,20.26264 -21.84559,25.64485 -4.43234,9.81476 -17.7298,27.22801 -8.8649,7.91504 -33.87664,7.91504 -13.61378,0 -16.77993,-9.49799 6.01552,-8.86513 6.01552,-8.54836 0,-0.63332 -12.34759,-14.88043 -13.29725,-15.19697 -14.56389,-17.09648 -17.09647,-25.01174 -52.23953,-92.76501 7.59849,1.58318 21.8456,6.64884 8.86512,9.81454 26.27815,26.59447 14.56387,11.08119 25.64506,10.13132 l 65.85355,-6.33185 q 0.94963,0 7.59848,1.58297 6.64862,1.58295 8.86467,1.58295 -8.86467,2.84938 -40.52526,31.66036 -32.60999,29.44408 -32.60999,36.09293 0,5.69874 1.8995,8.54812 31.97713,-30.39394 64.27059,-60.47134 38.62575,-37.99243 52.55608,-69.33602 2.8496,-6.33207 2.8496,-12.34759 0,-9.18144 -6.64862,-24.69519 -1.58318,-4.11579 -9.81477,-12.03083 0,6.96517 2.69111,21.05423 2.6911,14.08883 2.6911,19.47104 0,10.44785 -7.91504,23.74532 -5.06565,5.3822 -14.88042,16.46338 -39.57539,-2.53282 -60.47135,-2.53282 13.93057,-15.83029 27.86112,-31.34381 18.04635,-22.16237 18.04635,-35.4596 0,0 -16.77993,-19.94609 -17.7298,-20.89572 -20.26263,-26.91125 6.33207,-1.58296 5.38243,-1.58296 18.67944,0 24.06165,13.93056 4.11601,14.88019 7.91526,29.44408 1.89951,-3.79925 1.89951,-23.11201 0,-4.11601 1.74145,-12.03105 1.74124,-7.91504 1.74124,-12.03082 6.96517,10.76441 18.99622,33.24332 11.71427,0.63332 31.02703,4.43234 18.99644,8.23181 18.99644,36.72623 z m -65.85354,59.20471 q -27.54457,2.84937 -47.1741,2.84937 -59.20471,0 -66.80319,-6.64862 -7.59849,-9.18144 -23.74533,-26.27815 4.74889,0.94987 14.24711,3.79947 0.63309,0.31655 21.52905,10.76441 14.56364,7.28194 21.84558,7.28194 42.425,0 42.425,0 12.98069,2.84938 37.67588,8.23158 z m -80.73397,-36.40924 -11.7145,15.83006 q -6.96517,-2.21628 -20.57918,-6.96539 10.76463,-2.53283 32.29368,-8.86467 z m 152.60281,59.83802 q 0,28.17765 -5.3822,44.95759 -0.31655,1.26641 -5.38221,8.86491 -21.52904,32.92677 -57.62196,56.98864 -6.64862,4.43256 -26.59471,12.66415 -21.21249,8.86489 -27.22779,8.86489 -20.57918,0 -41.15858,-15.51352 -2.21605,-6.33207 -6.64861,-18.99622 12.03104,-4.11578 14.2471,-4.11578 4.74911,0 14.56388,0.79136 9.81454,0.7916 14.56364,0.7916 12.03106,0 23.11202,-16.14684 7.91525,-12.9807 15.83029,-25.96139 8.54835,-6.33207 24.06187,-21.21249 6.01552,-7.59849 20.57918,-38.30897 11.71449,-24.6952 25.01174,-33.87664 18.04634,10.76463 18.04634,40.20871 z M 416.44729,454.35415 Q 388.2694,430.9256 388.2694,420.47752 q 0,-3.48271 2.21629,-10.44787 2.84937,-8.54835 3.16615,-11.08118 6.33184,27.54456 6.96516,29.4443 4.74912,14.56366 15.83029,25.96138 z m -25.9616,-67.75328 q -11.08118,24.37864 -11.08118,33.87665 0,7.28193 8.54835,29.12752 -4.43234,-1.89951 -11.71427,-7.59849 -6.64885,-9.18145 -6.64885,-16.46338 0,-9.81454 7.91526,-25.01152 0.94986,-2.21628 12.98069,-13.93078 z M 707.40582,842.8268 q -2.21606,5.38221 -6.64862,15.51352 -18.36289,-15.51352 -26.5947,-47.8072 -5.3822,-20.57917 -31.66036,-70.9192 -23.11201,-43.69118 -25.64484,-72.50216 3.48247,-2.53283 10.44787,-7.59848 L 707.40582,842.8268 z M 378.13809,547.75227 q -8.8649,-3.79925 -14.2471,-12.66414 -8.54836,-15.19698 -9.49822,-16.14685 -7.28172,-7.91503 -14.8802,-15.83029 -12.03105,-12.98069 -12.03105,-14.8802 0,-1.26642 8.8649,-14.56388 9.49822,-14.56365 10.44786,-16.46338 9.18167,30.71049 31.34381,90.54874 z m 253.28287,48.44029 q -11.71428,40.8418 -35.14283,122.52564 -5.69898,1.89951 -31.02726,6.96517 -37.35912,7.28194 -62.6874,7.28194 -81.05052,0 -113.97729,-15.51352 -12.98092,-6.01553 -37.99244,-33.24333 -18.36311,-21.21249 -54.13926,-58.25506 -6.96539,-2.8496 -19.62954,-8.86512 -9.18145,-5.06566 -28.81098,-5.06566 5.69898,-24.06165 11.08119,-48.12374 7.28193,-32.92678 7.28193,-47.17388 0,0 -12.03082,-63.00394 22.16214,9.49799 63.95381,32.60999 8.23158,5.69898 35.4596,41.79168 26.27816,35.14305 32.92678,55.72223 l -8.86491,0 q -9.49799,0 -25.01174,-8.8649 -13.93055,-7.91503 -21.21249,-16.14684 -2.21606,-5.06565 -8.54813,-14.8802 -3.16615,8.23158 -3.16615,10.13132 0,5.3822 13.29747,14.88019 11.39773,7.91527 18.67944,10.76464 11.08118,4.11579 22.47891,7.91503 14.24733,5.69898 19.94608,11.71428 8.8649,13.61401 27.54457,39.25907 8.8649,7.91504 17.7298,15.83006 10.76441,10.13132 11.71427,19.62954 -3.79924,0.6331 -14.88041,6.33184 -0.63311,4.11603 2.84959,4.11603 6.64862,0 35.14283,-9.18168 35.45961,-11.39751 82.00038,-33.87642 54.45582,-25.9616 75.035,-45.27436 z"
     id="path3872"
     inkscape:connector-curvature="0"
     style="fill:#603813;fill-opacity:1;stroke:none"
     inkscape:export-xdpi="8.7890625"
     inkscape:export-ydpi="8.7890625"
     inkscape:export-filename="/storage/home/djwong/cdev/rscds/next/class.png" />
</svg>
