<?xml version="1.0" encoding="UTF-8" standalone="no"?>
<!-- Created with Inkscape (http://www.inkscape.org/) -->

<svg
   xmlns:dc="http://purl.org/dc/elements/1.1/"
   xmlns:cc="http://creativecommons.org/ns#"
   xmlns:rdf="http://www.w3.org/1999/02/22-rdf-syntax-ns#"
   xmlns:svg="http://www.w3.org/2000/svg"
   xmlns="http://www.w3.org/2000/svg"
   xmlns:sodipodi="http://sodipodi.sourceforge.net/DTD/sodipodi-0.dtd"
   xmlns:inkscape="http://www.inkscape.org/namespaces/inkscape"
   width="1024"
   height="1024"
   id="svg3815"
   version="1.1"
   inkscape:version="0.48.3.1 r9886"
   sodipodi:docname="logo.svg">
  <defs
     id="defs3817" />
  <sodipodi:namedview
     id="base"
     pagecolor="#ffffff"
     bordercolor="#666666"
     borderopacity="1.0"
     inkscape:pageopacity="0.0"
     inkscape:pageshadow="2"
     inkscape:zoom="0.49497475"
     inkscape:cx="375"
     inkscape:cy="607.47761"
     inkscape:document-units="px"
     inkscape:current-layer="layer1"
     showgrid="false"
     inkscape:window-width="1185"
     inkscape:window-height="866"
     inkscape:window-x="2054"
     inkscape:window-y="121"
     inkscape:window-maximized="0" />
  <metadata
     id="metadata3820">
    <rdf:RDF>
      <cc:Work
         rdf:about="">
        <dc:format>image/svg+xml</dc:format>
        <dc:type
           rdf:resource="http://purl.org/dc/dcmitype/StillImage" />
        <dc:title />
      </cc:Work>
    </rdf:RDF>
  </metadata>
  <g
     inkscape:label="Layer 1"
     inkscape:groupmode="layer"
     id="layer1"
     transform="translate(0,-28.362183)">
    <g
       id="g3925">
      <rect
         y="247.27147"
         x="232.97607"
         height="596.50189"
         width="613.84778"
         id="rect3848"
         style="fill:#ffffff;fill-opacity:1;stroke:none" />
      <rect
         y="312.25046"
         x="92.46846"
         height="453.09503"
         width="835.53882"
         id="rect3846"
         style="fill:#ffffff;fill-opacity:1;stroke:none" />
      <path
         style="fill:#0166c4"
         d="M 456.54703,1026.9545 C 334.37345,1008.8459 239.59097,961.45197 160.1401,878.74273 88.889337,804.56992 46.58735,720.63221 29.299514,619.12239 19.953394,564.24433 23.31506,475.15875 36.659601,424.07687 85.465829,237.25036 225.89151,101.67488 412.94114,60.791775 456.39866,51.293359 541.08598,49.490818 587.30583,57.080493 742.79814,82.613618 876.0066,179.57181 946.72299,318.68882 c 96.47161,189.78422 59.62721,417.66223 -91.86546,568.17651 -67.94506,67.50624 -144.447,109.61358 -238.6965,131.38057 -31.82354,7.3497 -131.93191,12.8116 -159.614,8.7086 z M 742.17549,797.48518 c 17.71577,-10.65701 30.45306,-31.42869 58.49694,-95.39536 29.60116,-67.51884 56.3147,-121.86298 96.97756,-197.28453 16.83633,-31.22798 30.03982,-59.74901 29.34116,-63.38008 -1.63836,-8.51472 -21.95597,-14.3061 -38.97707,-11.11011 -7.31552,1.3736 -17.82176,7.02227 -23.34726,12.5526 -9.14177,9.14978 -10.04638,12.80364 -10.04638,40.57924 0,16.7882 -1.69124,33.68693 -3.75831,37.55266 -2.06706,3.86574 -11.2915,11.44722 -20.49873,16.84774 -9.20724,5.40052 -18.93712,12.46831 -21.62192,15.70615 -8.19708,9.88554 -11.20157,31.96636 -7.93582,58.32264 3.76884,30.41627 -0.59253,48.57419 -14.24972,59.32632 -14.13121,11.12537 -26.33611,13.38405 -43.88514,8.12166 -32.44565,-9.72949 -57.0747,-45.67292 -52.14208,-76.09571 1.73916,-10.7265 8.27542,-20.26718 26.47029,-38.63762 l 24.1609,-24.39392 -0.16461,-23.95211 c -0.0905,-13.17366 -1.59509,-31.9706 -3.34352,-41.77098 -3.17877,-17.81793 -3.17777,-17.82014 18.43369,-41.34856 18.32993,-19.95591 21.61257,-25.74961 21.61257,-38.14543 0,-19.68282 -14.38717,-46.96319 -30.37619,-57.59803 -26.04968,-17.32654 -66.62967,-7.56564 -77.47281,18.6349 -6.18024,14.9336 -5.60932,31.69698 1.79499,52.70137 6.83782,19.39752 3.96028,29.98348 -13.58794,49.98731 -6.42285,7.32159 -14.40593,19.03781 -17.74025,26.03605 -6.53613,13.71845 -5.08327,25.54666 8.79632,71.61169 6.26779,20.80223 6.23817,22.33893 -0.70412,36.51934 -3.98595,8.14183 -13.30488,18.8781 -20.70866,23.85838 -27.80311,18.70217 -73.68145,3.18925 -87.34171,-29.53306 -8.19938,-19.64109 -4.45315,-37.5142 13.78161,-65.75168 19.34876,-29.96246 20.91533,-49.53734 6.33811,-79.19678 -12.01372,-24.4436 -12.13414,-39.47177 -0.44336,-55.33164 21.0209,-28.51716 22.14619,-51.58287 3.59318,-73.65121 -19.62145,-23.33921 -45.64748,-29.21673 -70.60204,-15.94424 -31.71168,16.86638 -38.99792,48.7652 -19.1706,83.92804 6.34609,11.25451 11.53837,24.06271 11.53837,28.46264 0,4.39992 -5.40901,19.22483 -12.01995,32.94427 -15.23263,31.61155 -14.00286,49.00967 5.72541,81.00001 17.13966,27.7928 18.87571,50.79127 5.33299,70.64895 -30.72595,45.05327 -106.42031,30.07744 -106.67312,-21.10488 -0.0308,-6.31354 4.48031,-24.84203 10.02557,-41.17437 12.43111,-36.61331 10.66985,-49.71735 -10.05642,-74.82096 -19.33468,-23.41816 -21.18633,-32.98092 -11.63566,-60.09194 9.58619,-27.2118 9.60378,-30.47589 0.26345,-48.8008 -20.35268,-39.9295 -78.78402,-35.01215 -99.7797,8.39707 -13.55664,28.02884 -11.20415,41.61106 11.56596,66.77665 21.66991,23.9496 20.72482,18.3431 12.69552,75.31331 -3.71801,26.3802 -0.0246,35.50842 25.46054,62.92714 20.21943,21.75339 22.94302,26.54127 22.94302,40.33201 0,31.51995 -28.23834,65.01392 -59.81035,70.94208 -19.18574,3.60238 -40.12684,-7.26739 -49.00071,-25.43454 -6.23171,-12.75795 -6.43468,-17.24745 -2.12763,-47.06261 4.19438,-29.03513 4.01173,-34.53241 -1.53399,-46.17208 -3.46238,-7.26707 -10.85138,-16.40363 -16.42,-20.30348 -31.48955,-22.05291 -30.72146,-20.57663 -30.72146,-59.04609 0,-34.97369 -0.10785,-35.37327 -12.56055,-46.51589 -10.26836,-9.18806 -16.00881,-11.23912 -31.45579,-11.23912 -12.04929,0 -21.08495,2.19168 -24.93909,6.0492 -3.32416,3.32705 -6.0439,6.69943 -6.0439,7.49418 0,0.79474 16.26416,34.01722 36.14261,73.82772 34.00666,68.10502 64.93005,137.66421 94.64246,212.8891 15.54156,39.34756 26.05045,56.94793 42.04609,70.41914 17.6855,14.89444 36.61062,17.29903 55.78517,7.08799 20.29662,-10.80859 31.34964,-27.55712 39.20099,-59.40087 3.49934,-14.19288 7.52584,-25.80525 8.94772,-25.80525 1.42188,0 6.43965,6.864 11.15061,15.25334 17.04894,30.36109 51.70268,42.94973 76.0587,27.62979 15.23618,-9.58357 29.88466,-29.07504 35.84437,-47.69499 2.54122,-7.93957 6.07783,-14.43557 7.85916,-14.43557 1.78128,0 6.12547,8.69879 9.65373,19.3307 8.11613,24.4567 26.29135,43.89046 46.79967,50.0403 14.3332,4.29811 17.73846,3.92081 33.48851,-3.71035 11.63668,-5.63814 21.12805,-14.17625 28.22341,-25.38876 15.30803,-24.19072 16.03543,-23.68441 22.33538,15.5457 3.14885,19.60807 15.92647,42.54783 28.17298,50.57906 21.32827,13.98708 38.59819,14.14148 61.19685,0.54716 z"
         id="path3836"
         inkscape:connector-curvature="0" />
    </g>
  </g>
</svg>
